<svg id="Capa_1" enable-background="new 0 0 512.098 512.098" height="512" viewBox="0 0 512.098 512.098" width="512" xmlns="http://www.w3.org/2000/svg"><g><g><path d="m391.96 283.439c2.123-2.419 4.032-5.051 5.684-7.88 9.001-15.415 9.377-34.031 1.005-49.798-12.552-23.637-17.396-50.736-13.638-76.309.897-6.102 1.364-12.348 1.39-18.564.086-21.457-5.227-42.798-15.361-61.715-2.607-4.868-8.669-6.702-13.537-4.092-4.868 2.608-6.7 8.669-4.092 13.537 8.57 15.998 13.062 34.045 12.99 52.189-.021 5.273-.417 10.567-1.177 15.736-4.373 29.759 1.225 61.224 15.761 88.597 5.1 9.604 4.871 20.943-.612 30.334-5.564 9.53-15.877 15.45-26.914 15.45h-22.09l-3.53-15.187c-.772-3.324-3.188-6.024-6.405-7.163-3.216-1.136-6.793-.556-9.484 1.542l-9.713 7.575v-20.883c21.788-14.824 36.127-39.816 36.127-68.098l.001-44.154c0-2.989-1.337-5.822-3.646-7.722-2.309-1.899-5.343-2.667-8.279-2.091-6.555 1.285-13.3 1.938-20.048 1.938-30.325 0-57.884-12.36-77.598-34.805-2.984-3.396-7.875-4.371-11.933-2.371-15.615 7.691-29.74 18.88-40.846 32.354-1.584 1.922-2.33 4.258-2.281 6.566v50.284c0 28.282 14.34 53.274 36.128 68.099v17.26l-5.069-3.953c-2.691-2.099-6.27-2.679-9.484-1.542-3.218 1.139-5.633 3.839-6.405 7.163l-3.53 15.187h-26.736c-11.036 0-21.35-5.921-26.915-15.45-5.482-9.391-5.711-20.73-.611-30.334.01-.018.019-.035.028-.054 14.606-27.531 20.021-58.333 15.655-89.073-.73-5.148-1.101-10.417-1.101-15.659 0-29.763 11.671-57.666 32.862-78.569 20.818-20.532 48.278-31.784 77.483-31.784.519 0 1.04.004 1.561.011 11.521.158 22.865 2.11 33.715 5.803 5.227 1.776 10.909-1.018 12.688-6.245s-1.017-10.909-6.245-12.688c-12.84-4.37-26.26-6.681-39.885-6.867-35.184-.488-68.334 12.848-93.361 37.534-25.031 24.69-38.817 57.65-38.817 92.808 0 6.18.438 12.394 1.3 18.471 3.769 26.544-.914 53.146-13.544 76.931-.008.015-.017.03-.024.047-8.35 15.757-7.968 34.353 1.025 49.757 1.652 2.829 3.562 5.461 5.685 7.88-38.115 9.36-66.476 43.815-66.476 84.776v133.882c0 5.522 4.478 10 10 10h384.777c5.522 0 10-4.478 10-10v-133.884c0-40.961-28.362-75.417-66.478-84.777zm-68.489 51.838-46.33-22.652 34.763-27.108zm-129.737-156.566v-46.808c7.312-8.273 16.002-15.414 25.518-20.985 22.893 22.819 54.215 35.764 87.14 35.764 3.999 0 7.999-.192 11.973-.575l-.001 32.604c0 34.36-27.954 62.314-62.314 62.314s-62.316-27.953-62.316-62.314zm36.129 78.02c8.232 2.771 17.032 4.295 26.186 4.295 9.155 0 17.955-1.525 26.187-4.295v26.559l-23.864 18.609-28.509-22.232zm-25.023 28.785 34.764 27.108-46.331 22.652zm-131.18 82.7c0-37.104 30.187-67.291 67.291-67.291h39.773l-11.695 50.309c-.874 3.76.493 7.686 3.513 10.089 1.806 1.437 4.008 2.176 6.229 2.176 1.493 0 2.996-.335 4.391-1.017l12.88-6.297-35.014 135.914h-87.368zm108.021 123.882 37.991-147.466 28.34-13.855-22.375 161.322h-43.956zm76.941-92.246 12.794 92.246h-25.589zm32.987 92.246-22.339-161.06 28.376 13.874 37.918 147.186zm146.829 0h-82.221l-34.942-135.633 12.307 6.017c1.395.683 2.896 1.017 4.391 1.017 2.221 0 4.424-.739 6.229-2.176 3.02-2.403 4.387-6.329 3.513-10.089l-11.695-50.309h35.128c37.104 0 67.291 30.187 67.291 67.291v123.882z" fill="#240000"/><circle cx="333.539" cy="38.802" r="10"/></g></g></svg>