<?xml version="1.0" encoding="iso-8859-1"?>
<!-- Generator: Adobe Illustrator 19.0.0, SVG Export Plug-In . SVG Version: 6.00 Build 0)  -->
<svg version="1.1" id="Capa_1" xmlns="http://www.w3.org/2000/svg" xmlns:xlink="http://www.w3.org/1999/xlink" x="0px" y="0px"
	 viewBox="0 0 512 512" style="enable-background:new 0 0 512 512;" xml:space="preserve">
<g>
	<g>
		<path d="M428.719,63.242C387.936,22.46,333.713,0,276.04,0c-57.676,0-111.898,22.46-152.68,63.242
			c-40.361,40.361-62.776,93.882-63.234,150.892l-39.292,78.584c-1.756,3.512-0.513,7.784,2.856,9.804l36.429,21.858V440.36
			c0,4.15,3.364,7.515,7.515,7.515h72.642v56.611c0,4.15,3.364,7.515,7.515,7.515s7.515-3.365,7.515-7.515V440.36
			c0-4.15-3.364-7.515-7.515-7.515H75.147v-112.72c0-2.639-1.385-5.086-3.649-6.444l-34.111-20.467l36.966-73.932
			c0.522-1.044,0.794-2.193,0.794-3.361c0-110.772,90.12-200.892,200.892-200.892s200.892,90.12,200.892,200.892
			c0,62.247-28.164,119.964-77.27,158.356c-1.822,1.424-2.887,3.608-2.887,5.921v124.287c0,4.15,3.364,7.515,7.515,7.515
			s7.515-3.365,7.515-7.515V383.823c50.992-41.246,80.157-102.228,80.157-167.901C491.961,158.247,469.502,104.024,428.719,63.242z"
			fill="#240000"/>
	</g>
</g>
<g>
	<g>
		<path d="M417.619,202.593c-3.036-3.036-75.107-74.342-141.581-74.342c-74.658,0-139.173,71.615-141.882,74.663
			c-2.531,2.848-2.531,7.138,0,9.985c2.709,3.048,67.225,74.663,141.883,74.663c24.185,0,49.85-7.577,76.283-22.52
			c3.613-2.042,4.887-6.627,2.845-10.24c-2.044-3.613-6.627-4.887-10.24-2.844c-24.15,13.653-47.326,20.574-68.888,20.574
			c-57.023,0-110.04-48.68-125.877-64.63c15.82-15.959,68.755-64.622,125.877-64.622c50.591,0,108.093,48.853,125.615,64.904
			c-5.369,5.412-14.778,14.358-26.979,23.829c-3.278,2.545-3.874,7.265-1.329,10.544c2.546,3.279,7.268,3.874,10.544,1.329
			c20.687-16.057,33.495-30.384,34.03-30.986C420.566,209.925,420.433,205.406,417.619,202.593z" fill="#240000"/>
	</g>
</g>
<g>
	<g>
		<path d="M276.04,152.297c-30.663,0-55.609,24.946-55.609,55.609s24.946,55.609,55.609,55.609
			c30.663,0,55.609-24.946,55.609-55.609S306.703,152.297,276.04,152.297z M276.04,248.485c-22.376,0-40.579-18.204-40.579-40.579
			c0-22.376,18.204-40.579,40.579-40.579c22.376,0,40.579,18.204,40.579,40.579C316.619,230.282,298.415,248.485,276.04,248.485z" fill="#240000"/>
	</g>
</g>
<g>
	<g>
		<path d="M284.055,176.344c-12.983,0-23.546,10.563-23.546,23.546c0,12.983,10.563,23.546,23.546,23.546
			c12.983,0,23.546-10.563,23.546-23.546C307.601,186.907,297.039,176.344,284.055,176.344z M284.055,208.407
			c-4.696,0-8.517-3.82-8.517-8.517s3.82-8.517,8.517-8.517c4.696,0,8.517,3.82,8.517,8.517S288.752,208.407,284.055,208.407z" fill="#240000"/>
	</g>
</g>
<g>
	<g>
		<path d="M276.04,80.157c-4.151,0-7.515,3.365-7.515,7.515v24.047c0,4.15,3.364,7.515,7.515,7.515s7.515-3.365,7.515-7.515V87.671
			C283.554,83.521,280.191,80.157,276.04,80.157z"/>
	</g>
</g>
<g>
	<g>
		<path d="M425.635,146.483c-2.936-2.935-7.693-2.935-10.628,0l-16.031,16.031c-2.735,2.735-2.918,7.255-0.399,10.196
			c2.81,3.282,7.97,3.487,11.027,0.431l16.031-16.031C428.57,154.175,428.57,149.417,425.635,146.483z"/>
	</g>
</g>
<g>
	<g>
		<path d="M368.38,97.45c-3.452-2.302-8.119-1.37-10.42,2.084l-16.031,24.047c-3.258,4.886,0.336,11.684,6.245,11.684
			c2.429,0,4.811-1.175,6.259-3.348l16.031-24.047C372.767,104.418,371.833,99.752,368.38,97.45z"/>
	</g>
</g>
<g>
	<g>
		<path d="M153.104,162.514l-16.031-16.031c-2.936-2.935-7.693-2.935-10.628,0c-2.935,2.935-2.935,7.693,0,10.627l16.031,16.031
			c1.467,1.468,3.391,2.201,5.313,2.201C154.36,175.342,157.733,167.143,153.104,162.514z"/>
	</g>
</g>
<g>
	<g>
		<path d="M210.15,123.581l-16.031-24.047c-2.302-3.453-6.967-4.386-10.42-2.084c-3.453,2.302-4.387,6.968-2.084,10.42
			l16.031,24.047c1.449,2.172,3.831,3.348,6.259,3.348C209.813,135.265,213.408,128.467,210.15,123.581z"/>
	</g>
</g>
<g>
</g>
<g>
</g>
<g>
</g>
<g>
</g>
<g>
</g>
<g>
</g>
<g>
</g>
<g>
</g>
<g>
</g>
<g>
</g>
<g>
</g>
<g>
</g>
<g>
</g>
<g>
</g>
<g>
</g>
</svg>
